<svg width="32" height="32" viewBox="0 0 128 128" fill="none" xmlns="http://www.w3.org/2000/svg"><circle cx="64" cy="64" r="62" fill="#EBF5FF" stroke="#009" stroke-width="4"/><mask id="prefix__a" style="mask-type:alpha" maskUnits="userSpaceOnUse" x="4" y="4" width="120" height="120"><circle cx="64" cy="64" r="58" fill="#EBF5FF" stroke="#009" stroke-width="4"/></mask><g mask="url(#prefix__a)"><path fill-rule="evenodd" clip-rule="evenodd" d="M67.464 31c-1.54-2.666-5.389-2.666-6.928 0L43.602 60.337a24.697 24.697 0 00-1.91 3.31c-.087.16-.162.321-.225.484a24.627 24.627 0 00-2.176 10.157C39.29 87.935 50.352 99 64 99s24.71-11.065 24.71-24.713c0-3.622-.78-7.061-2.179-10.16a4.094 4.094 0 00-.22-.477 24.685 24.685 0 00-1.914-3.316L67.464 31z" fill="#009"/><path d="M69.174 93.597a19.988 19.988 0 0014.643-16.7c.343-2.604.17-5.249-.51-7.784l-3.861 1.034a15.995 15.995 0 01-11.307 19.588l1.035 3.862z" fill="#EBF5FF"/></g></svg>