<?xml version="1.0" standalone="no"?>
<!DOCTYPE svg PUBLIC "-//W3C//DTD SVG 20010904//EN"
 "http://www.w3.org/TR/2001/REC-SVG-20010904/DTD/svg10.dtd">
<svg version="1.0" xmlns="http://www.w3.org/2000/svg"
 width="640.000000pt" height="640.000000pt" viewBox="0 0 640.000000 640.000000"
 preserveAspectRatio="xMidYMid meet">
<metadata>
Created by potrace 1.11, written by Peter Selinger 2001-2013
</metadata>
<g transform="translate(0.000000,640.000000) scale(0.100000,-0.100000)"
fill="#000000" stroke="none">
<path d="M1650 4640 l0 -700 145 0 145 0 0 555 0 555 135 0 135 0 0 -555 0
-555 425 0 425 0 0 700 0 700 -145 0 -145 0 0 -560 0 -560 -135 0 -135 0 0
560 0 560 -425 0 -425 0 0 -700z"/>
<path d="M3330 4640 l0 -700 700 0 700 0 0 700 0 700 -700 0 -700 0 0 -700z
m1120 94 l0 -316 -67 60 c-38 33 -90 83 -118 111 l-49 51 -93 0 -93 0 0 -86 0
-86 110 -119 c61 -65 110 -121 110 -124 0 -3 -142 -5 -315 -5 l-315 0 0 415 0
415 415 0 415 0 0 -316z"/>
<path d="M1650 3540 l0 -150 1540 0 1540 0 0 150 0 150 -1540 0 -1540 0 0
-150z"/>
<path d="M2410 3000 l0 -120 -380 0 -380 0 0 -790 0 -790 380 0 379 0 3 -102
3 -103 788 -3 787 -2 0 105 0 105 370 0 370 0 0 623 0 622 -168 168 -167 167
-295 0 -295 0 -120 120 -120 120 -577 0 -578 0 0 -120z m1020 5 c0 -13 -42
-15 -315 -15 l-315 0 0 -50 0 -50 315 0 315 0 0 -55 0 -55 -292 -2 -293 -3 0
-25 0 -25 293 -3 c183 -1 292 -6 292 -12 0 -6 -139 -10 -385 -10 l-385 0 0
-25 0 -25 385 0 c250 0 385 -4 385 -10 0 -6 -135 -10 -385 -10 l-385 0 0 -25
0 -25 385 0 c250 0 385 -4 385 -10 0 -6 -135 -10 -385 -10 l-385 0 0 -30 0
-30 555 0 555 0 0 30 0 30 60 0 60 0 0 -685 0 -685 -690 0 -690 0 0 915 0 915
460 0 c402 0 460 -2 460 -15z m280 -170 l175 -175 -178 0 -177 0 0 175 c0 96
1 175 3 175 1 0 81 -79 177 -175z m-1300 -50 c0 -13 -32 -15 -231 -15 l-230 0
3 -37 3 -38 228 -3 227 -2 0 -40 0 -40 -212 -2 c-205 -3 -213 -4 -213 -23 0
-19 8 -20 215 -25 l215 -6 -287 -2 c-281 -2 -288 -3 -288 -22 0 -20 7 -20 285
-20 183 0 285 -4 285 -10 0 -6 -102 -10 -285 -10 -278 0 -285 0 -285 -20 0
-19 7 -20 288 -22 l287 -3 -285 -5 -285 -5 -3 -22 -3 -23 288 -2 288 -3 -287
-2 c-280 -3 -288 -4 -288 -23 0 -19 7 -20 285 -20 183 0 285 -4 285 -10 0 -6
-102 -10 -285 -10 -278 0 -285 0 -285 -20 0 -20 7 -20 285 -20 183 0 285 -4
285 -10 0 -6 -79 -10 -216 -10 -200 0 -215 -1 -212 -17 3 -16 24 -19 218 -23
l215 -6 -288 -2 -288 -2 3 -22 3 -23 285 -5 285 -5 -287 -3 c-281 -2 -288 -3
-288 -22 0 -20 7 -20 285 -20 183 0 285 -4 285 -10 0 -6 -102 -10 -285 -10
-278 0 -285 0 -285 -20 0 -19 7 -20 288 -22 l287 -3 -285 -5 -285 -5 -3 -22
-3 -23 288 -2 288 -3 -287 -2 c-280 -3 -288 -4 -288 -23 0 -19 7 -20 285 -20
179 0 285 -4 285 -10 0 -6 -82 -11 -212 -12 -182 -3 -213 -5 -213 -18 0 -13
31 -15 213 -18 130 -1 212 -6 212 -12 0 -6 -106 -10 -285 -10 -278 0 -285 0
-285 -20 0 -19 7 -20 288 -22 l287 -3 -287 -2 -288 -3 0 -25 0 -25 288 -2 287
-3 -287 -2 c-280 -3 -288 -4 -288 -23 0 -19 7 -20 285 -20 183 0 285 -4 285
-10 0 -6 -102 -10 -285 -10 -278 0 -285 0 -285 -20 0 -19 7 -20 288 -22 l287
-3 -285 -5 -285 -5 -3 -22 -3 -23 288 -2 288 -2 -215 -6 c-207 -5 -215 -6
-215 -25 0 -19 8 -20 215 -25 l215 -6 -287 -2 c-281 -2 -288 -3 -288 -22 0
-20 7 -20 285 -20 183 0 285 -4 285 -10 0 -6 -102 -10 -285 -10 -278 0 -285 0
-285 -20 0 -20 7 -20 285 -20 278 0 285 0 285 -20 0 -20 -7 -20 -340 -20
l-340 0 0 710 0 710 340 0 c296 0 340 -2 340 -15z m1890 0 c0 -13 -28 -15
-194 -15 -160 0 -196 3 -206 15 -11 13 12 15 194 15 176 0 206 -2 206 -15z
m215 -135 l130 -130 -133 0 -132 0 0 130 c0 72 1 130 3 130 1 0 61 -58 132
-130z m-215 0 l0 -40 -155 0 -155 0 0 40 0 40 155 0 155 0 0 -40z m-72 -97
c-42 -2 -114 -2 -160 0 -46 1 -11 3 77 3 88 0 125 -2 83 -3z m72 -53 c0 -6
-58 -10 -155 -10 -97 0 -155 4 -155 10 0 6 58 10 155 10 97 0 155 -4 155 -10z
m-72 -57 c-42 -2 -114 -2 -160 0 -46 1 -11 3 77 3 88 0 125 -2 83 -3z m422
-533 l0 -530 -330 0 c-323 0 -330 0 -330 20 0 19 7 20 180 20 173 0 180 1 180
20 0 19 -7 20 -180 20 -113 0 -180 4 -180 10 0 6 103 10 290 10 283 0 290 0
290 20 0 19 -7 20 -292 22 l-293 3 290 5 290 5 3 23 3 22 -293 2 c-161 1 -227
4 -145 5 l147 4 0 24 0 24 -147 4 c-82 1 -16 4 145 5 285 2 292 3 292 22 0 20
-7 20 -290 20 -187 0 -290 4 -290 10 0 6 103 10 290 10 283 0 290 0 290 20 0
19 -7 20 -292 22 l-293 3 290 5 290 5 3 23 3 22 -293 2 -293 3 293 2 c284 3
292 4 292 23 0 19 -7 20 -290 20 -187 0 -290 4 -290 10 0 6 103 10 290 10 283
0 290 0 290 20 0 20 -7 20 -290 20 -187 0 -290 4 -290 10 0 6 92 10 256 10
238 0 255 1 252 18 -3 15 -26 17 -258 22 l-255 6 293 2 293 2 -3 23 -3 22
-290 5 -290 5 293 3 c285 2 292 3 292 22 0 20 -7 20 -290 20 -187 0 -290 4
-290 10 0 6 103 10 290 10 283 0 290 0 290 20 0 19 -7 20 -292 22 l-293 3 290
5 290 5 3 23 3 22 -293 2 -293 3 293 2 c284 3 292 4 292 23 0 19 -7 20 -290
20 -187 0 -290 4 -290 10 0 6 78 10 215 10 208 0 215 1 215 20 0 19 -7 20
-215 20 -137 0 -215 4 -215 10 0 6 103 10 290 10 283 0 290 0 290 20 0 19 -7
20 -292 22 l-293 3 294 2 293 3 -4 25 c-5 24 -3 25 38 25 l44 0 0 -530z"/>
<path d="M2660 2939 l0 -49 45 0 45 0 0 49 0 49 -45 0 -45 0 0 -49z"/>
<path d="M2660 2455 l0 -25 555 0 555 0 0 25 0 25 -555 0 -555 0 0 -25z"/>
<path d="M2662 2383 l3 -28 460 0 460 0 3 28 3 27 -466 0 -466 0 3 -27z"/>
<path d="M2842 2308 l3 -23 463 -3 462 -2 0 25 0 25 -466 0 -465 0 3 -22z"/>
<path d="M2660 2235 l0 -25 555 0 555 0 0 25 0 25 -555 0 -555 0 0 -25z"/>
<path d="M2660 2160 l0 -30 555 0 555 0 0 30 0 30 -555 0 -555 0 0 -30z"/>
<path d="M2660 2085 l0 -25 555 0 555 0 0 25 0 25 -555 0 -555 0 0 -25z"/>
<path d="M2660 2015 l0 -25 555 0 555 0 0 25 0 25 -555 0 -555 0 0 -25z"/>
<path d="M2660 1940 l0 -30 510 0 510 0 0 30 0 30 -510 0 -510 0 0 -30z"/>
<path d="M2842 1868 l3 -23 463 -3 462 -2 0 25 0 25 -466 0 -465 0 3 -22z"/>
<path d="M2660 1795 l0 -25 555 0 555 0 0 25 0 25 -555 0 -555 0 0 -25z"/>
<path d="M2667 1743 c-4 -3 -7 -17 -7 -30 l0 -23 555 0 555 0 0 30 0 30 -548
0 c-302 0 -552 -3 -555 -7z"/>
<path d="M2660 1645 l0 -25 555 0 555 0 0 25 0 25 -555 0 -555 0 0 -25z"/>
<path d="M2662 1573 l3 -28 553 -3 552 -2 0 30 0 30 -556 0 -555 0 3 -27z"/>
<path d="M2660 1495 l0 -25 373 2 372 3 3 23 3 22 -375 0 -376 0 0 -25z"/>
<path d="M2847 1443 c-4 -3 -7 -15 -7 -25 0 -17 21 -18 465 -18 l465 0 0 25 0
25 -458 0 c-252 0 -462 -3 -465 -7z"/>
<path d="M2660 1350 l0 -30 555 0 555 0 0 30 0 30 -555 0 -555 0 0 -30z"/>
<path d="M2660 1275 l0 -25 420 0 420 0 0 25 0 25 -420 0 -420 0 0 -25z"/>
<path d="M1840 2730 c0 -39 1 -40 35 -40 34 0 35 1 35 40 0 39 -1 40 -35 40
-34 0 -35 -1 -35 -40z"/>
</g>
</svg>
