<?xml version="1.0" standalone="no"?>
<!DOCTYPE svg PUBLIC "-//W3C//DTD SVG 20010904//EN"
 "http://www.w3.org/TR/2001/REC-SVG-20010904/DTD/svg10.dtd">
<svg version="1.0" xmlns="http://www.w3.org/2000/svg"
 width="640.000000pt" height="640.000000pt" viewBox="0 0 640.000000 640.000000"
 preserveAspectRatio="xMidYMid meet">
<metadata>
Created by potrace 1.11, written by Peter Selinger 2001-2013
</metadata>
<g transform="translate(0.000000,640.000000) scale(0.100000,-0.100000)"
fill="#000000" stroke="none">
<path d="M1660 4640 l0 -700 135 0 135 0 2 558 3 557 138 3 137 3 0 -561 0
-560 420 0 420 0 0 700 0 700 -140 0 -140 0 0 -560 0 -560 -140 0 -140 0 0
560 0 560 -415 0 -415 0 0 -700z"/>
<path d="M3337 5333 c-4 -3 -7 -318 -7 -700 l0 -693 700 0 700 0 0 700 0 700
-693 0 c-382 0 -697 -3 -700 -7z m1113 -600 l0 -328 -118 118 -117 117 -88 0
-87 0 0 -88 0 -89 77 -84 c42 -46 93 -101 112 -121 l35 -38 -327 0 -327 0 0
420 0 420 420 0 420 0 0 -327z"/>
<path d="M1660 3540 l0 -150 1535 0 1535 0 0 150 0 150 -1535 0 -1535 0 0
-150z"/>
<path d="M2420 2995 l0 -125 -380 0 -380 0 0 -785 0 -785 380 0 380 0 0 -105
0 -105 780 0 780 0 0 105 0 105 375 0 375 0 0 622 0 623 -162 162 -163 163
-295 0 -295 0 -125 125 -125 125 -572 0 -573 0 0 -125z m1010 10 l0 -25 -310
0 -310 0 0 -45 0 -45 310 0 310 0 0 -60 0 -60 -290 0 c-283 0 -290 0 -290 -20
0 -20 7 -20 290 -20 251 0 290 -2 290 -15 0 -13 -50 -15 -386 -15 l-385 0 3
-22 3 -23 383 -3 c240 -1 382 -6 382 -12 0 -6 -142 -11 -382 -12 l-383 -3 -3
-22 -3 -23 269 0 c148 0 425 -3 615 -7 l347 -6 0 -689 0 -688 -690 0 -690 0 0
920 0 920 460 0 460 0 0 -25z m285 -165 l180 -180 -188 0 -187 0 0 180 c0 99
3 180 8 180 4 0 88 -81 187 -180z m-1295 -55 c0 -13 -32 -15 -230 -15 l-230 0
0 -35 0 -35 230 0 230 0 0 -50 0 -50 -215 0 c-184 0 -215 -2 -215 -15 0 -13
31 -15 215 -15 137 0 215 -4 215 -10 0 -6 -102 -10 -285 -10 -278 0 -285 0
-285 -20 0 -20 7 -20 285 -20 183 0 285 -4 285 -10 0 -6 -102 -10 -285 -10
-278 0 -285 0 -285 -20 0 -20 7 -20 285 -20 183 0 285 -4 285 -10 0 -6 -102
-10 -285 -10 -247 0 -285 -2 -285 -15 0 -13 38 -15 285 -15 183 0 285 -4 285
-10 0 -6 -102 -10 -285 -10 -278 0 -285 0 -285 -20 0 -20 7 -20 285 -20 183 0
285 -4 285 -10 0 -6 -102 -10 -285 -10 -278 0 -285 0 -285 -20 0 -20 7 -20
285 -20 183 0 285 -4 285 -10 0 -6 -78 -10 -215 -10 -208 0 -215 -1 -215 -20
0 -19 7 -20 215 -20 137 0 215 -4 215 -10 0 -6 -102 -10 -285 -10 -247 0 -285
-2 -285 -15 0 -13 38 -15 285 -15 183 0 285 -4 285 -10 0 -6 -102 -10 -285
-10 -278 0 -285 0 -285 -20 0 -20 7 -20 285 -20 183 0 285 -4 285 -10 0 -6
-102 -10 -285 -10 -278 0 -285 0 -285 -20 0 -20 7 -20 285 -20 183 0 285 -4
285 -10 0 -6 -102 -10 -285 -10 -247 0 -285 -2 -285 -15 0 -13 38 -15 286 -15
224 0 285 -3 282 -12 -4 -10 -72 -14 -286 -16 -242 -2 -282 -4 -282 -17 0 -13
40 -15 285 -15 183 0 285 -4 285 -10 0 -6 -78 -10 -215 -10 -208 0 -215 -1
-215 -20 0 -19 7 -20 215 -20 137 0 215 -4 215 -10 0 -6 -102 -10 -285 -10
-278 0 -285 0 -285 -20 0 -20 7 -20 285 -20 183 0 285 -4 285 -10 0 -6 -102
-10 -285 -10 -247 0 -285 -2 -285 -15 0 -13 38 -15 285 -15 183 0 285 -4 285
-10 0 -6 -102 -10 -285 -10 -278 0 -285 0 -285 -20 0 -20 7 -20 285 -20 183 0
285 -4 285 -10 0 -6 -102 -10 -285 -10 -278 0 -285 0 -285 -20 0 -20 7 -20
285 -20 183 0 285 -4 285 -10 0 -6 -102 -10 -285 -10 -247 0 -285 -2 -285 -15
0 -13 38 -15 286 -15 224 0 285 -3 282 -12 -4 -10 -58 -14 -216 -16 -179 -2
-212 -5 -212 -17 0 -13 32 -15 215 -15 137 0 215 -4 215 -10 0 -6 -102 -10
-285 -10 -278 0 -285 0 -285 -20 0 -20 7 -20 285 -20 183 0 285 -4 285 -10 0
-6 -102 -10 -285 -10 -278 0 -285 0 -285 -20 0 -20 7 -20 285 -20 l285 0 0
-25 0 -25 -345 0 -345 0 0 715 0 715 345 0 c300 0 345 -2 345 -15z m1880 0 c0
-13 -28 -15 -194 -15 -160 0 -196 3 -206 15 -11 13 12 15 194 15 176 0 206 -2
206 -15z m215 -125 l140 -140 -143 0 -142 0 0 140 c0 77 1 140 3 140 1 0 65
-63 142 -140z m-215 -10 l0 -51 -157 3 -158 3 -3 33 c-6 63 -8 62 163 62 l155
0 0 -50z m0 -90 c0 -6 -60 -10 -160 -10 -100 0 -160 4 -160 10 0 6 60 10 160
10 100 0 160 -4 160 -10z m0 -60 c0 -6 -60 -10 -160 -10 -100 0 -160 4 -160
10 0 6 60 10 160 10 100 0 160 -4 160 -10z m268 -60 l92 0 0 -535 0 -535 -337
2 -338 3 -3 22 c-3 23 -3 23 180 25 165 3 183 5 186 21 3 16 -11 17 -182 17
-117 0 -186 4 -186 10 0 6 103 10 290 10 283 0 290 0 290 20 0 20 -7 20 -290
20 -187 0 -290 4 -290 10 0 6 103 10 290 10 250 0 290 2 290 15 0 13 -41 15
-287 17 -184 2 -288 7 -288 13 0 6 58 11 148 13 122 2 147 5 147 17 0 13 -25
15 -150 15 -93 0 -150 4 -150 10 0 6 103 10 290 10 283 0 290 0 290 20 0 20
-7 20 -290 20 -187 0 -290 4 -290 10 0 6 103 10 290 10 283 0 290 0 290 20 0
20 -7 20 -291 20 -191 0 -288 3 -284 10 4 6 112 10 291 10 246 0 284 2 284 15
0 13 -38 15 -284 15 -179 0 -287 4 -291 10 -4 7 93 10 284 10 284 0 291 0 291
20 0 20 -7 20 -290 20 -187 0 -290 4 -290 10 0 6 103 10 290 10 283 0 290 0
290 20 0 20 -7 20 -290 20 -187 0 -290 4 -290 10 0 6 92 10 255 10 219 0 255
2 255 15 0 12 -37 15 -250 17 -156 2 -251 7 -253 13 -1 6 100 11 286 13 246 2
287 4 287 17 0 13 -40 15 -284 15 -179 0 -287 4 -291 10 -4 7 93 10 284 10
284 0 291 0 291 20 0 20 -7 20 -290 20 -187 0 -290 4 -290 10 0 6 103 10 290
10 283 0 290 0 290 20 0 20 -7 20 -291 20 -191 0 -288 3 -284 10 4 6 112 10
291 10 246 0 284 2 284 15 0 13 -38 15 -284 15 -179 0 -287 4 -291 10 -4 7 93
10 284 10 284 0 291 0 291 20 0 20 -7 20 -290 20 -187 0 -290 4 -290 10 0 6
80 10 220 10 213 0 220 1 220 20 0 19 -7 20 -220 20 -140 0 -220 4 -220 10 0
6 103 10 290 10 283 0 290 0 290 20 0 20 -7 20 -291 20 -191 0 -288 3 -284 10
4 6 112 10 291 10 246 0 284 2 284 15 0 13 -38 15 -284 15 -206 0 -287 3 -292
12 -5 8 53 10 242 5 137 -4 291 -7 342 -7z"/>
<path d="M2662 2938 c2 -31 8 -44 21 -46 14 -3 17 4 17 42 0 40 -3 46 -21 46
-18 0 -20 -5 -17 -42z"/>
<path d="M2710 2935 c0 -38 3 -45 20 -45 17 0 20 7 20 45 0 38 -3 45 -20 45
-17 0 -20 -7 -20 -45z"/>
<path d="M2660 2530 c0 -20 7 -20 555 -20 548 0 555 0 555 20 0 20 -7 20 -555
20 -548 0 -555 0 -555 -20z"/>
<path d="M2664 2465 c-3 -8 -3 -19 1 -25 4 -7 183 -10 556 -10 l549 0 0 25 0
25 -550 0 c-472 0 -551 -2 -556 -15z"/>
<path d="M2660 2380 c0 -20 7 -20 465 -20 458 0 465 0 465 20 0 20 -7 20 -465
20 -458 0 -465 0 -465 -20z"/>
<path d="M2850 2305 l0 -25 458 2 457 3 3 23 3 22 -460 0 -461 0 0 -25z"/>
<path d="M2664 2245 c-3 -8 -3 -19 1 -25 4 -7 183 -10 556 -10 l549 0 0 25 0
25 -550 0 c-472 0 -551 -2 -556 -15z"/>
<path d="M2660 2160 c0 -20 7 -20 555 -20 548 0 555 0 555 20 0 20 -7 20 -555
20 -548 0 -555 0 -555 -20z"/>
<path d="M2662 2088 l3 -23 553 -3 552 -2 0 25 0 25 -556 0 -555 0 3 -22z"/>
<path d="M2667 2033 c-4 -3 -7 -15 -7 -25 0 -17 23 -18 555 -18 l555 0 0 25 0
25 -548 0 c-302 0 -552 -3 -555 -7z"/>
<path d="M2660 1940 c0 -20 7 -20 510 -20 503 0 510 0 510 20 0 20 -7 20 -510
20 -503 0 -510 0 -510 -20z"/>
<path d="M2850 1865 l0 -25 460 0 460 0 0 25 0 25 -460 0 -460 0 0 -25z"/>
<path d="M2667 1813 c-4 -3 -7 -15 -7 -25 0 -17 24 -18 556 -18 l555 0 -3 23
-3 22 -546 3 c-300 1 -549 -1 -552 -5z"/>
<path d="M2660 1720 c0 -20 7 -20 555 -20 548 0 555 0 555 20 0 20 -7 20 -555
20 -548 0 -555 0 -555 -20z"/>
<path d="M2664 1655 c-3 -8 -3 -19 1 -25 4 -7 183 -10 556 -10 l549 0 0 25 0
25 -550 0 c-472 0 -551 -2 -556 -15z"/>
<path d="M2660 1570 c0 -20 7 -20 555 -20 548 0 555 0 555 20 0 20 -7 20 -555
20 -548 0 -555 0 -555 -20z"/>
<path d="M2662 1498 l3 -23 368 -3 367 -2 0 25 0 25 -371 0 -370 0 3 -22z"/>
<path d="M2850 1425 l0 -25 460 0 460 0 0 25 0 25 -460 0 -460 0 0 -25z"/>
<path d="M2660 1350 c0 -20 7 -20 555 -20 548 0 555 0 555 20 0 20 -7 20 -555
20 -548 0 -555 0 -555 -20z"/>
<path d="M2662 1278 l3 -23 413 -3 412 -2 0 25 0 25 -416 0 -415 0 3 -22z"/>
<path d="M1850 2735 c0 -19 5 -35 10 -35 6 0 10 16 10 35 0 19 -4 35 -10 35
-5 0 -10 -16 -10 -35z"/>
<path d="M1880 2735 c0 -24 5 -35 15 -35 10 0 15 11 15 35 0 24 -5 35 -15 35
-10 0 -15 -11 -15 -35z"/>
</g>
</svg>
