<?xml version="1.0" standalone="no"?>
<!DOCTYPE svg PUBLIC "-//W3C//DTD SVG 20010904//EN"
 "http://www.w3.org/TR/2001/REC-SVG-20010904/DTD/svg10.dtd">
<svg version="1.0" xmlns="http://www.w3.org/2000/svg"
 width="640.000000pt" height="640.000000pt" viewBox="0 0 640.000000 640.000000"
 preserveAspectRatio="xMidYMid meet">
<metadata>
Created by potrace 1.11, written by Peter Selinger 2001-2013
</metadata>
<g transform="translate(0.000000,640.000000) scale(0.100000,-0.100000)"
fill="#000000" stroke="none">
<path d="M1660 4300 l0 -700 135 0 135 0 0 560 0 560 140 0 140 0 2 -557 3
-558 418 -3 417 -2 0 700 0 700 -140 0 -140 0 0 -560 0 -560 -140 0 -140 0 0
560 0 560 -415 0 -415 0 0 -700z"/>
<path d="M3332 4303 l3 -698 698 -3 697 -2 0 700 0 700 -700 0 -700 0 2 -697z
m1118 90 l0 -328 -118 118 -117 117 -88 0 -87 0 0 -88 0 -87 86 -95 c48 -52
98 -107 112 -122 l26 -28 -327 0 -327 0 0 420 0 420 420 0 420 0 0 -327z"/>
<path d="M1660 3275 l0 -75 -830 0 -830 0 0 -1600 0 -1600 3200 0 3200 0 0
1600 0 1600 -835 0 -835 0 0 75 0 75 -1535 0 -1535 0 0 -75z m3070 -150 l0
-75 -1535 0 -1535 0 0 75 0 75 1535 0 1535 0 0 -75z m-1680 -505 l0 -140 -560
0 -561 0 3 -137 3 -138 558 -3 557 -2 0 -140 0 -140 -560 0 -561 0 3 -137 3
-138 558 -3 557 -2 0 -140 0 -140 -695 0 -695 0 0 700 0 700 695 0 695 0 0
-140z m1690 -560 l0 -700 -135 0 -135 0 0 560 0 560 -140 0 -140 0 -2 -557 -3
-558 -137 -3 -138 -3 0 561 0 560 -140 0 -140 0 0 -560 0 -560 -140 0 -140 0
0 700 0 700 695 0 695 0 0 -700z"/>
</g>
</svg>
